<svg xmlns="http://www.w3.org/2000/svg" height="45.397" viewBox="0 0 90.531 45.397" width="90.531"><defs><style>.a{fill:#3cbe86;}.b{fill:#fff;}.c{fill:#2b5744;}</style></defs><g transform="translate(0 28.377)"><path class="a" d="M0-27.535H17.019v-17.02H0Z" transform="translate(0 44.555)"/><g transform="translate(2.539 2.812)"><path class="b" d="M-1.322-2.51l-1.46,4.342L.9-.879,4.65,1.864,3.51-1.54,1.065-.948,6.9-5.181H2.371L.9-9.49-.441-5.178H-5Z" transform="translate(4.999 9.49)"/></g><path class="a" d="M42.005-27.536H24.986V-44.555H42.005Z" transform="translate(-6.608 44.555)"/><g transform="translate(20.917 2.812)"><path class="b" d="M-1.322-2.51l-1.46,4.342L.9-.879,4.65,1.864,3.51-1.54,1.065-.948,6.9-5.181H2.371L.9-9.49-.441-5.178H-5Z" transform="translate(4.999 9.49)"/></g><path class="a" d="M66.991-27.536H49.971V-44.555h17.02Z" transform="translate(-13.216 44.555)"/><g transform="translate(39.295 2.812)"><path class="b" d="M-1.322-2.51-2.783,1.832.9-.879,4.65,1.864,3.51-1.54,1.065-.948,6.9-5.181H2.371L.9-9.49-.442-5.178H-5Z" transform="translate(4.999 9.49)"/></g><path class="a" d="M91.976-27.536H74.957V-44.555H91.976Z" transform="translate(-19.824 44.555)"/><g transform="translate(57.673 2.812)"><path class="b" d="M-1.322-2.51-2.783,1.832.9-.879,4.65,1.864,3.51-1.54,1.065-.948,6.9-5.181H2.371L.9-9.49-.442-5.178H-5Z" transform="translate(4.999 9.49)"/></g><path class="a" d="M99.943-27.535h17.019v-17.02H99.943Z" transform="translate(-26.432 44.555)"/><g transform="translate(76.05 2.812)"><path class="b" d="M-1.322-2.51l-1.46,4.342L.9-.879,4.65,1.864,3.51-1.54,1.065-.948,6.9-5.181H2.371L.9-9.49-.441-5.178H-5Z" transform="translate(4.999 9.49)"/></g></g><g transform="translate(0.203 0)"><g transform="translate(10.542 12.393)"><path class="c" d="M-2.342-2.753-4.829-10.41-8.854-7.486Z" transform="translate(8.854 10.41)"/></g><g transform="translate(23.135 7.659)"><path class="b" d="M0,0H8.915V1.666h-3.5v9.346H3.486V1.666H0ZM8.529,3.038H10.18V4.581h.031a1.754,1.754,0,0,1,.3-.633,2.923,2.923,0,0,1,.539-.563,2.729,2.729,0,0,1,.7-.409,2.094,2.094,0,0,1,.786-.154,4.019,4.019,0,0,1,.424.015l.238.031v1.7c-.123-.021-.249-.038-.377-.054a3.167,3.167,0,0,0-.378-.023,2.027,2.027,0,0,0-.84.177,1.93,1.93,0,0,0-.687.524,2.567,2.567,0,0,0-.463.856,3.7,3.7,0,0,0-.169,1.172v3.795H8.529Zm12.742,7.974H19.544V9.9h-.031a2.42,2.42,0,0,1-.964.964,2.624,2.624,0,0,1-1.3.362,2.927,2.927,0,0,1-2.275-.778,3.421,3.421,0,0,1-.7-2.352V3.038h1.759V7.928a2.16,2.16,0,0,0,.4,1.481,1.459,1.459,0,0,0,1.126.432,2.206,2.206,0,0,0,.925-.17,1.626,1.626,0,0,0,.6-.455,1.757,1.757,0,0,0,.332-.686,3.588,3.588,0,0,0,.1-.864V3.038h1.758Zm2.993-2.56a1.324,1.324,0,0,0,.585,1.08,2.307,2.307,0,0,0,1.219.308,4.689,4.689,0,0,0,.563-.038,2.444,2.444,0,0,0,.594-.146,1.124,1.124,0,0,0,.455-.316.759.759,0,0,0,.162-.548.777.777,0,0,0-.247-.555A1.71,1.71,0,0,0,27,7.889a5.653,5.653,0,0,0-.825-.224q-.462-.093-.941-.2a8.81,8.81,0,0,1-.948-.263,3.027,3.027,0,0,1-.818-.416,1.914,1.914,0,0,1-.578-.671,2.139,2.139,0,0,1-.216-1.01,1.819,1.819,0,0,1,.316-1.088,2.429,2.429,0,0,1,.8-.709,3.481,3.481,0,0,1,1.08-.378,6.319,6.319,0,0,1,1.133-.108,5.183,5.183,0,0,1,1.18.132,3.208,3.208,0,0,1,1.018.424,2.5,2.5,0,0,1,.756.763,2.651,2.651,0,0,1,.377,1.133H27.5a1.1,1.1,0,0,0-.578-.848,2.4,2.4,0,0,0-1.042-.216,3.871,3.871,0,0,0-.44.03,2.076,2.076,0,0,0-.478.116,1,1,0,0,0-.378.246.592.592,0,0,0-.154.424.671.671,0,0,0,.224.524,1.761,1.761,0,0,0,.586.332,5.721,5.721,0,0,0,.825.224q.462.093.956.2.478.108.941.263a3.041,3.041,0,0,1,.825.416,2.02,2.02,0,0,1,.585.663,2,2,0,0,1,.224.987,2.14,2.14,0,0,1-.324,1.2,2.557,2.557,0,0,1-.84.8,3.841,3.841,0,0,1-1.15.447,5.8,5.8,0,0,1-1.249.138,5.431,5.431,0,0,1-1.4-.169,3.25,3.25,0,0,1-1.111-.517,2.484,2.484,0,0,1-.74-.864,2.743,2.743,0,0,1-.285-1.226Zm5.8-5.414h1.326V.648h1.758v2.39h1.589V4.349H33.147V8.606a4.239,4.239,0,0,0,.024.478.823.823,0,0,0,.108.339.513.513,0,0,0,.254.208A1.255,1.255,0,0,0,34,9.7c.124,0,.246,0,.37-.007a1.887,1.887,0,0,0,.37-.054V11l-.571.062a5.15,5.15,0,0,1-.571.031,3.91,3.91,0,0,1-1.117-.131,1.5,1.5,0,0,1-.664-.386,1.325,1.325,0,0,1-.324-.64,4.809,4.809,0,0,1-.1-.879v-4.7H30.063Zm5.907,0h1.665v1.08h.031a2.179,2.179,0,0,1,1.033-1,3.438,3.438,0,0,1,1.434-.3,3.818,3.818,0,0,1,1.643.332,3.254,3.254,0,0,1,1.164.91,3.947,3.947,0,0,1,.694,1.35,5.709,5.709,0,0,1,.232,1.651,5.86,5.86,0,0,1-.208,1.558,4.069,4.069,0,0,1-.633,1.334,3.079,3.079,0,0,1-2.6,1.272,4.336,4.336,0,0,1-.772-.069,3.31,3.31,0,0,1-.74-.224,2.9,2.9,0,0,1-.655-.394,2.166,2.166,0,0,1-.5-.563h-.031v3.979H35.97Zm6.138,3.995a3.993,3.993,0,0,0-.138-1.049,2.863,2.863,0,0,0-.416-.9,2.165,2.165,0,0,0-.694-.633,1.89,1.89,0,0,0-.956-.238,1.94,1.94,0,0,0-1.674.771,3.405,3.405,0,0,0-.563,2.051,4.106,4.106,0,0,0,.146,1.118,2.514,2.514,0,0,0,.44.887,2.194,2.194,0,0,0,.7.586,2,2,0,0,0,.949.216,1.964,1.964,0,0,0,1.018-.246,2.164,2.164,0,0,0,.686-.64,2.608,2.608,0,0,0,.385-.9,4.537,4.537,0,0,0,.115-1.025M45.208,0h1.758V1.666H45.208Zm0,3.038h1.758v7.974H45.208ZM48.538,0H50.3V11.012H48.538Zm7.141,11.228a4.352,4.352,0,0,1-1.7-.316,3.638,3.638,0,0,1-1.264-.872,3.716,3.716,0,0,1-.786-1.326,5.1,5.1,0,0,1-.27-1.7,5.054,5.054,0,0,1,.27-1.681A3.709,3.709,0,0,1,52.71,4.01a3.638,3.638,0,0,1,1.264-.872,4.752,4.752,0,0,1,3.409,0,3.652,3.652,0,0,1,1.264.872,3.72,3.72,0,0,1,.786,1.326,5.054,5.054,0,0,1,.27,1.681,5.1,5.1,0,0,1-.27,1.7,3.726,3.726,0,0,1-.786,1.326,3.652,3.652,0,0,1-1.264.872,4.355,4.355,0,0,1-1.7.316m0-1.388A2.017,2.017,0,0,0,56.7,9.594a2.148,2.148,0,0,0,.709-.648,2.817,2.817,0,0,0,.409-.9,4.051,4.051,0,0,0,0-2.043,2.733,2.733,0,0,0-.409-.9,2.189,2.189,0,0,0-.709-.64,2.228,2.228,0,0,0-2.037,0,2.189,2.189,0,0,0-.709.64,2.733,2.733,0,0,0-.409.9,4.052,4.052,0,0,0,0,2.043,2.818,2.818,0,0,0,.409.9,2.148,2.148,0,0,0,.709.648,2.016,2.016,0,0,0,1.018.246m4.535-6.8H61.54V.648H63.3v2.39h1.589V4.349H63.3V8.606a4.073,4.073,0,0,0,.024.478.812.812,0,0,0,.107.339.515.515,0,0,0,.254.208,1.253,1.253,0,0,0,.463.069c.124,0,.247,0,.371-.007a1.9,1.9,0,0,0,.37-.054V11l-.571.062a5.169,5.169,0,0,1-.571.031,3.912,3.912,0,0,1-1.118-.131,1.492,1.492,0,0,1-.663-.386,1.318,1.318,0,0,1-.324-.64,4.745,4.745,0,0,1-.1-.879v-4.7H60.213Z"/></g><g transform="translate(0)"><path class="a" d="M-3.79,0-6.278,7.657h-8.053l6.515,4.735L-10.3,20.05l6.515-4.733L.236,12.392,6.751,7.659H-1.3Zm0,15.317L2.724,20.05.8,14.129Z" transform="translate(14.331)"/></g></g></svg>